HIERARCHY
ROOT root     
{
	OFFSET 0.0000 0.0000 0.0000
	CHANNELS 6 Xposition Yposition Zposition Zrotation Yrotation Xrotation
	JOINT pelvis   
	{
		OFFSET 0.0000 0.0000 0.0000
		CHANNELS 3 Zrotation Yrotation Xrotation
		JOINT thorax   
		{
			OFFSET 0.0000 23.0750 -5.0000
			CHANNELS 3 Zrotation Yrotation Xrotation
			JOINT rclavicle
			{
				OFFSET 0.0000 28.0009 0.0000
				CHANNELS 3 Zrotation Yrotation Xrotation
				JOINT rhumerus 
				{
					OFFSET -18.5725 5.5939 0.0000
					CHANNELS 3 Zrotation Yrotation Xrotation
					JOINT rradius  
					{
						OFFSET -24.8459 0.0000 0.0000
						CHANNELS 3 Zrotation Yrotation Xrotation
						JOINT rhand    
						{
							OFFSET -24.5477 0.0000 0.0000
							CHANNELS 3 Zrotation Yrotation Xrotation
							End Site
							{
								OFFSET -8.1826 0.0000 0.0000
							}
						}
					}
				}
			}
			JOINT lclavicle
			{
				OFFSET 0.0000 28.0009 0.0000
				CHANNELS 3 Zrotation Yrotation Xrotation
				JOINT lhumerus 
				{
					OFFSET 18.5725 5.5939 0.0000
					CHANNELS 3 Zrotation Yrotation Xrotation
					JOINT lradius  
					{
						OFFSET 24.8459 0.0000 0.0000
						CHANNELS 3 Zrotation Yrotation Xrotation
						JOINT lhand    
						{
							OFFSET 24.5477 0.0000 0.0000
							CHANNELS 3 Zrotation Yrotation Xrotation
							End Site
							{
								OFFSET 8.1826 0.0000 0.0000
							}
						}
					}
				}
			}
			JOINT head     
			{
				OFFSET 0.0000 35.2030 0.0000
				CHANNELS 3 Zrotation Yrotation Xrotation
				End Site
				{
					OFFSET 0.0000 11.7343 0.0000
				}
			}
		}
		JOINT rfemur   
		{
			OFFSET -8.2817 0.0000 0.0000
			CHANNELS 3 Zrotation Yrotation Xrotation
			JOINT rtibia   
			{
				OFFSET 0.0000 -43.3627 0.0000
				CHANNELS 3 Zrotation Yrotation Xrotation
				JOINT rfoot    
				{
					OFFSET 0.0000 -38.2947 0.0000
					CHANNELS 3 Zrotation Yrotation Xrotation
					JOINT rtoes    
					{
						OFFSET 0.0000 0.0000 16.6054
						CHANNELS 3 Zrotation Yrotation Xrotation
						End Site
						{
							OFFSET 0.0000 0.0000 5.5351
						}
					}
				}
			}
		}
		JOINT lfemur   
		{
			OFFSET 8.2817 0.0000 0.0000
			CHANNELS 3 Zrotation Yrotation Xrotation
			JOINT ltibia   
			{
				OFFSET 0.0000 -43.3627 0.0000
				CHANNELS 3 Zrotation Yrotation Xrotation
				JOINT lfoot    
				{
					OFFSET 0.0000 -38.2947 0.0000
					CHANNELS 3 Zrotation Yrotation Xrotation
					JOINT ltoes    
					{
						OFFSET 0.0000 0.0000 16.6054
						CHANNELS 3 Zrotation Yrotation Xrotation
						End Site
						{
							OFFSET 0.0000 0.0000 5.5351
						}
					}
				}
			}
		}
	}
}
MOTION
Frames: 13
Frame Time: .0333333
75.044 75.97 12.944 -170.78 -80.6118 -152.183 0 -0 0 -7.73151 4.12255 17.198 13.5143 -5.80004 -1.94213e-05 44.5312 11.041 6.25736 -0 87.0093 -0 -4.86395 5.62687 -0.239199 -17.9338 17.1663 1.08227e-05 -52.6095 21.3008 14.8295 0 -56.6638 0 -10.0388 14.673 -1.29577 3.23555 -0.928616 -29.6591 2.27419 -13.0934 -44.8115 -0 -0 63.5789 -1.40849e-06 -4.70976 -8.78877 0.721195 6.18508e-06 -88.1724 -8.54028 8.76088 -80.0238 -0 -0 39.6888 9.55916e-06 7.04367 12.2007 1.49583 1.49934e-05 -33.2421 
74.081 75.812 13.15 -171.972 -80.7585 -151.052 0 -0 0 -8.17054 3.89065 17.2801 13.7961 -5.80467 2.53151e-05 45.1427 10.4667 6.3662 -4.3731e-06 86.677 -4.63462e-06 -4.90314 5.7727 -0.247397 -18.1658 16.8444 4.54996e-05 -52.3775 20.5755 14.962 0 -56.5979 0 -10.1889 14.7646 -1.3235 3.6293 -0.939755 -29.8554 1.77393 -13.6081 -45.2736 -0 -0 65.4936 -2.12393e-07 -4.41926 -6.68593 0.515506 4.27839e-06 -90.1295 -8.76672 8.4569 -80.2932 -0 -0 41.4798 -2.77201e-05 7.07266 11.5176 1.41916 -1.58331e-05 -31.4704 
73.138 75.669 13.351 -173.182 -80.9157 -149.898 0 -0 0 -8.56734 3.65762 17.3749 14.0504 -5.80879 2.13637e-05 45.8147 9.9107 6.4599 -9.0831e-06 86.2357 -9.15921e-06 -4.94532 5.91084 -0.2555 -18.4084 16.4912 0.000118399 -52.1005 19.7386 15.1189 0 -56.508 0 -10.3109 14.8553 -1.34781 3.95374 -0.975835 -29.9794 1.27621 -14.0662 -45.7878 -0 -0 67.4008 4.81312e-06 -4.19769 -4.44209 0.325703 1.04599e-06 -91.4116 -9.02526 8.14771 -80.4866 -0 -0 43.1366 8.71843e-06 7.13989 10.538 1.31245 4.16128e-06 -29.9111 
72.214 75.541 13.545 -174.38 -81.0841 -148.746 0 -0 0 -8.9181 3.42051 17.4757 14.2737 -5.79884 1.31918e-05 46.5455 9.37522 6.5387 -4.17355e-06 85.6908 -3.87144e-06 -4.98187 6.03744 -0.262902 -18.6683 16.1101 -5.45814e-06 -51.7841 18.8128 15.2654 0 -56.4067 0 -10.3924 14.9395 -1.36632 4.19722 -1.02502 -30.0249 0.792013 -14.4618 -46.3406 -0 -0 69.2719 -6.49406e-07 -4.05961 -2.15108 0.152599 -3.48874e-07 -91.8482 -9.30143 7.84193 -80.6025 -0 -0 44.6566 3.6375e-06 7.2421 9.32741 1.1799 -1.35585e-06 -28.5829 
71.311 75.43 13.729 -175.464 -81.2626 -147.692 0 -0 0 -9.20892 3.18532 17.5758 14.4656 -5.77843 -1.50652e-06 47.3261 8.87485 6.60605 -3.15787e-06 85.046 -2.89619e-06 -5.00694 6.15032 -0.269197 -18.9391 15.7201 7.17586e-05 -51.4442 17.7883 15.3888 0 -56.2815 0 -10.4147 15.0082 -1.37568 4.35013 -1.08185 -29.9938 0.34317 -14.7812 -46.9225 -0 -0 71.0858 6.57104e-08 -4.02585 0.0845011 -0.00589995 -6.28592e-08 -91.3496 -9.5724 7.55337 -80.6527 -0 -0 46.043 4.29557e-06 7.36863 7.96721 1.0269 -3.30047e-06 -27.4921 
70.431 75.334 13.901 -176.35 -81.4316 -146.826 0 -0 0 -9.43424 2.954 17.6673 14.626 -5.7457 -2.60594e-05 48.1515 8.41736 6.66224 -0 84.2813 -0 -5.01422 6.2489 -0.273901 -19.2214 15.3348 -0.000145426 -51.095 16.6684 15.466 5.09722e-07 -56.1335 -9.55959e-07 -10.3598 15.0596 -1.37303 4.4095 -1.13817 -29.8901 -0.0533273 -15.0212 -47.5303 -0 -0 72.8256 2.47986e-06 -4.11466 2.15846 -0.1552 4.68416e-07 -89.9394 -9.82226 7.29178 -80.6504 -0 -0 47.3038 -5.57334e-07 7.50743 6.54354 0.860407 3.04126e-06 -26.6445 
69.575 75.254 14.06 -177.002 -81.6058 -146.172 0 -0 0 -9.59417 2.72655 17.7478 14.7566 -5.69781 4.13572e-06 49.0141 8.00629 6.70462 -0 83.4034 -0 -4.99795 6.33519 -0.276794 -19.5059 14.9637 -1.32276e-05 -50.75 15.4605 15.474 5.0609e-07 -55.9628 -9.52542e-07 -10.2124 15.0867 -1.35587 4.37846 -1.18577 -29.7251 -0.383403 -15.1835 -48.1673 -0 -0 74.4816 -1.76106e-06 -4.33944 3.97587 -0.301496 -2.81849e-06 -87.7337 -10.0382 7.06319 -80.6066 -0 -0 48.4441 -6.78125e-06 7.64617 5.13829 0.6889 -8.65625e-07 -26.0321 
68.745 75.193 14.205 -177.403 -81.7769 -145.747 0 -0 0 -9.69299 2.50182 17.8114 14.8615 -5.63219 -1.15771e-05 49.9089 7.64216 6.72879 -3.01078e-06 82.4081 -3.43861e-06 -4.95531 6.41356 -0.277801 -19.7867 14.6147 -4.78556e-05 -50.4227 14.1756 15.3922 5.02149e-07 -55.7793 -9.48809e-07 -9.95904 15.0908 -1.32237 4.2658 -1.2181 -29.5116 -0.637712 -15.2757 -48.8374 -0 -0 76.0504 3.03363e-06 -4.70664 5.464 -0.449202 5.40861e-06 -84.9392 -10.2152 6.8704 -80.5382 -0 -0 49.4709 2.81278e-06 7.77451 3.82052 0.521201 6.83309e-07 -25.6367 
67.941 75.151 14.335 -177.551 -81.9373 -145.556 0 -0 0 -9.74148 2.27729 17.8572 14.9429 -5.54214 -2.98912e-05 50.8316 7.31673 6.72659 -1.51501e-06 81.3029 -1.30094e-06 -4.88635 6.49045 -0.277202 -20.0548 14.2805 -0.000102426 -50.128 12.8396 15.1892 0 -55.5944 0 -9.5916 15.0649 -1.27118 4.08575 -1.22916 -29.2631 -0.813284 -15.3078 -49.5503 -0 -0 77.5284 -8.22779e-06 -5.20984 6.57767 -0.598397 7.51491e-06 -81.7673 -10.3534 6.71142 -80.4567 -0 -0 50.3964 2.57434e-06 7.88395 2.63577 0.364897 -4.26968e-07 -25.3831 
67.167 75.131 14.452 -177.446 -82.0921 -145.591 0 -0 0 -9.74264 2.05295 17.8862 15.0037 -5.44022 -1.108e-05 51.7767 7.04147 6.69965 -1.34337e-06 80.0932 -1.12912e-06 -4.79353 6.57379 -0.275504 -20.3003 13.9869 -3.45888e-06 -49.8728 11.431 14.8842 0 -55.4072 0 -9.10619 15.0227 -1.20322 3.8518 -1.21817 -28.9998 -0.903638 -15.2864 -50.3168 -0 -0 78.9071 6.04877e-06 -5.8375 7.31425 -0.74572 -3.44691e-07 -78.5824 -10.4486 6.583 -80.3754 -0 -0 51.2201 2.20664e-06 7.97179 1.62443 0.227497 8.44437e-07 -25.3298 
66.421 75.132 14.557 -177.173 -82.2512 -145.761 0 -0 0 -9.71806 1.82417 17.8972 15.0466 -5.30803 2.6011e-05 52.7411 6.78693 6.63169 -0 78.796 -0 -4.68598 6.67269 -0.273306 -20.5103 13.6982 -1.16768e-05 -49.6709 10.0201 14.4272 0 -55.2581 0 -8.50409 14.9469 -1.11762 3.58566 -1.1831 -28.7336 -0.920765 -15.2281 -51.1419 -0 -0 80.1878 6.3982e-06 -6.55352 7.67918 -0.879516 -1.93087e-07 -75.4579 -10.5172 6.4802 -80.2955 -0 -0 51.952 -1.66509e-07 8.03344 0.775704 0.109501 6.91331e-07 -25.2856 
65.705 75.156 14.651 -176.769 -82.398 -146.039 0 -0 0 -9.67274 1.58969 17.8953 15.0771 -5.16124 1.17734e-05 53.7216 6.56387 6.52732 -0 77.4111 -0 -4.57361 6.79593 -0.271702 -20.6768 13.4392 2.09348e-05 -49.5197 8.57869 13.852 4.89101e-07 -55.1532 -9.36512e-07 -7.79333 14.8508 -1.0172 3.30189 -1.12675 -28.4837 -0.867655 -15.1409 -52.0332 -0 -0 81.3604 -5.15218e-06 -7.32163 7.71577 -0.9883 5.98053e-07 -72.6171 -10.5612 6.39492 -80.2227 -0 -0 52.5911 -2.01604e-08 8.07244 0.0859999 0.0121993 -1.70981e-07 -25.2791 
65.019 75.204 14.734 -176.294 -82.5407 -146.363 0 -0 0 -9.61886 1.34732 17.8838 15.0969 -5.00366 5.15988e-06 54.7124 6.36545 6.38515 -0 75.9527 -0 -4.47042 6.95043 -0.271601 -20.792 13.2116 5.21981e-05 -49.4148 7.12093 13.1696 0 -55.1085 0 -6.98715 14.7364 -0.90462 3.01631 -1.05345 -28.2622 -0.755229 -15.0361 -52.991 -0 -0 82.4217 2.45849e-06 -8.09372 7.47365 -1.05971 -1.90589e-06 -70.1169 -10.5922 6.32069 -80.1524 -0 -0 53.1366 -6.78258e-09 8.09146 -0.473504 -0.0673 -3.26471e-07 -25.257 
